{"title":"Philadelphia (1993) BDRip-AVC MediaClub","uid":10083103,"size":3193464591,"categoryP":"video","categoryS":"hd___movies","magnet":"?xt=urn:btih:74f35e96a5912c4d47f08129db6b11d3744969a1&amp;dn=Philadelphia+%281993%29+BDRip-AVC+MediaClub&amp;tr=udp%3A%2F%2Ftracker.openbittorrent.com%3A80&amp;tr=udp%3A%2F%2Fopen.demonii.com%3A1337&amp;tr=udp%3A%2F%2Ftracker.coppersurfer.tk%3A6969&amp;tr=udp%3A%2F%2Fexodus.desync.com%3A6969","seeders":2,"leechers":2,"uploader":"neni69","files":1,"time":1399045966,"description":" &lt;a href=&quot; http://mediaclub.tv/&quot; rel=&quot;nofollow&quot; target=&quot;_NEW&quot;&gt; http://mediaclub.tv/&lt;/a&gt;   Welcome to MediaClub\n\n===================================================================\n\nUnique ID                      : 195361423123696758698852307189519407950 (0x92F93DD17332B5CC8F921A420B38DB4E)\nComplete name                  : E:MCFiladelfija.1993.x264.BDRip(AVC)-MediaClubFiladelfija.1993.x264.BDRip(AVC)-MediaClub.mkv\nFormat                         : Matroska\nFormat version                 : Version 2\nFile size                      : 2.97 GiB\nDuration                       : 2h 5mn\nOverall bit rate               : 3 394 Kbps\nMovie name                     : -= Release MediaClub =-\nEncoded date                   : UTC 2014-05-01 15:40:44\nWriting application            : mkvmerge v5.6.0 ('Kenya Kane') built on May 27 2012 16:44:04\nWriting library                : libebml v1.2.3 + libmatroska v1.3.0\n\nVideo\nID                             : 1\nFormat                         : AVC\nFormat/Info                    : Advanced Video Codec\nFormat profile                 : &lt;a class=&quot;__cf_email__&quot; href=&quot;/cdn-cgi/l/email-protection&quot; data-cfemail=&quot;7b33121c133b374f554a&quot;&gt;[email&amp;#160;protected]&lt;/a&gt;&lt;script cf-hash='f9e31' type=&quot;text/javascript&quot;&gt;\n/* &lt;![CDATA[ */!function(){try{var t=&quot;currentScript&quot;in document?document.currentScript:function(){for(var t=document.getElementsByTagName(&quot;script&quot;),e=t.length;e--;)if(t[e].getAttribute(&quot;cf-hash&quot;))return t[e]}();if(t&amp;&amp;t.previousSibling){var e,r,n,i,c=t.previousSibling,a=c.getAttribute(&quot;data-cfemail&quot;);if(a){for(e=&quot;&quot;,r=parseInt(a.substr(0,2),16),n=2;a.length-n;n+=2)i=parseInt(a.substr(n,2),16)^r,e+=String.fromCharCode(i);e=document.createTextNode(e),c.parentNode.replaceChild(e,c)}}}catch(u){}}();/* ]]&gt; */&lt;/script&gt;\nFormat settings, CABAC         : Yes\nFormat settings, ReFrames      : 10 frames\nCodec ID                       : V_MPEG4/ISO/AVC\nDuration                       : 2h 5mn\nBit rate                       : 1 407 Kbps\nWidth                          : 1 024 pixels\nHeight                         : 552 pixels\nDisplay aspect ratio           : 1.85:1\nFrame rate                     : 23.976 fps\nColor space                    : YUV\nChroma subsampling             : 4:2:0\nBit depth                      : 8 bits\nScan type                      : Progressive\nBits/(Pixel*Frame)             : 0.104\nStream size                    : 1.18 GiB (40%)\nTitle                          : Filadelfija.1993.x264.BDRip(AVC)-neni\nWriting library                : x264 core 142 r2409+42 04be48a tMod [8-bit@4:2:0 X86_64]\nEncoding settings              : cabac=1 / ref=10 / deblock=1:-2:-2 / analyse=0x3:0x113 / me=umh / subme=11 / psy=1 / fade_compensate=0.00 / psy_rd=1.00:0.20 / mixed_ref=1 / me_range=48 / chroma_me=1 / trellis=2 / 8x8dct=1 / cqm=0 / deadzone=21,11 / fast_pskip=0 / chroma_qp_offset=-3 / threads=9 / lookahead_threads=1 / sliced_threads=0 / nr=0 / decimate=0 / interlaced=0 / bluray_compat=0 / constrained_intra=0 / fgo=0 / bframes=8 / b_pyramid=2 / b_adapt=2 / b_bias=0 / direct=3 / weightb=1 / open_gop=0 / weightp=2 / keyint=240 / keyint_min=23 / scenecut=40 / intra_refresh=0 / rc=2pass / mbtree=0 / bitrate=1407 / ratetol=1.0 / qcomp=0.60 / qpmin=0:0:0 / qpmax=69:69:69 / qpstep=4 / cplxblur=20.0 / qblur=0.5 / ip_ratio=1.40 / pb_ratio=1.30 / aq=2:1.20 / aq-sensitivity=10.00 / aq-factor=1.00:1.00:1.00 / aq2=0 / aq3=0\nLanguage                       : English\nDefault                        : Yes\nForced                         : Yes\n\nAudio #1\nID                             : 2\nFormat                         : AC-3\nFormat/Info                    : Audio Coding 3\nFormat profile                 : Dolby Digital\nMode extension                 : CM (complete main)\nFormat settings, Endianness    : Big\nCodec ID                       : A_AC3\nDuration                       : 2h 5mn\nBit rate mode                  : Constant\nBit rate                       : 192 Kbps\nChannel(s)                     : 2 channels\nChannel positions              : Front: L R\nSampling rate                  : 48.0 KHz\nBit depth                      : 16 bits\nCompression mode               : Lossy\nStream size                    : 172 MiB (6%)\nTitle                          : DUB (Video Servis)\nLanguage                       : Russian\nDefault                        : Yes\nForced                         : Yes\n\nAudio #2\nID                             : 3\nFormat                         : AC-3\nFormat/Info                    : Audio Coding 3\nFormat profile                 : Dolby Digital\nMode extension                 : CM (complete main)\nFormat settings, Endianness    : Big\nCodec ID                       : A_AC3\nDuration                       : 2h 5mn\nBit rate mode                  : Constant\nBit rate                       : 192 Kbps\nChannel(s)                     : 2 channels\nChannel positions              : Front: L R\nSampling rate                  : 48.0 KHz\nBit depth                      : 16 bits\nCompression mode               : Lossy\nStream size                    : 172 MiB (6%)\nTitle                          : DVO (NTV+)\nLanguage                       : Russian\nDefault                        : No\nForced                         : No\n\nAudio #3\nID                             : 4\nFormat                         : AC-3\nFormat/Info                    : Audio Coding 3\nFormat profile                 : Dolby Digital\nMode extension                 : CM (complete main)\nFormat settings, Endianness    : Big\nCodec ID                       : A_AC3\nDuration                       : 2h 5mn\nBit rate mode                  : Constant\nBit rate                       : 192 Kbps\nChannel(s)                     : 2 channels\nChannel positions              : Front: L R\nSampling rate                  : 48.0 KHz\nBit depth                      : 16 bits\nCompression mode               : Lossy\nStream size                    : 172 MiB (6%)\nTitle                          : MVO (ORT)\nLanguage                       : Russian\nDefault                        : No\nForced                         : No\n\nAudio #4\nID                             : 5\nFormat                         : AC-3\nFormat/Info                    : Audio Coding 3\nMode extension                 : CM (complete main)\nFormat settings, Endianness    : Big\nCodec ID                       : A_AC3\nDuration                       : 2h 5mn\nBit rate mode                  : Constant\nBit rate                       : 192 Kbps\nChannel(s)                     : 1 channel\nChannel positions              : Front: C\nSampling rate                  : 48.0 KHz\nBit depth                      : 16 bits\nCompression mode               : Lossy\nStream size                    : 172 MiB (6%)\nTitle                          : MVO (Tak treba prodakschn)\nLanguage                       : Ukrainian\nDefault                        : No\nForced                         : No\n\nAudio #5\nID                             : 6\nFormat                         : AC-3\nFormat/Info                    : Audio Coding 3\nMode extension                 : CM (complete main)\nFormat settings, Endianness    : Big\nCodec ID                       : A_AC3\nDuration                       : 2h 5mn\nBit rate mode                  : Constant\nBit rate                       : 448 Kbps\nChannel(s)                     : 6 channels\nChannel positions              : Front: L C R, Side: L R, LFE\nSampling rate                  : 48.0 KHz\nBit depth                      : 16 bits\nCompression mode               : Lossy\nStream size                    : 402 MiB (13%)\nTitle                          : AVO (Gavrilov)\nLanguage                       : Russian\nDefault                        : No\nForced                         : No\n\nAudio #6\nID                             : 7\nFormat                         : AC-3\nFormat/Info                    : Audio Coding 3\nMode extension                 : CM (complete main)\nFormat settings, Endianness    : Big\nCodec ID                       : A_AC3\nDuration                       : 2h 5mn\nBit rate mode                  : Constant\nBit rate                       : 320 Kbps\nChannel(s)                     : 5 channels\nChannel positions              : Front: L C R, Side: L R\nSampling rate                  : 48.0 KHz\nBit depth                      : 16 bits\nCompression mode               : Lossy\nDelay relative to video        : 9ms\nStream size                    : 287 MiB (9%)\nTitle                          : AVO (Serbin)\nLanguage                       : Russian\nDefault                        : No\nForced                         : No\n\nAudio #7\nID                             : 8\nFormat                         : AC-3\nFormat/Info                    : Audio Coding 3\nMode extension                 : CM (complete main)\nFormat settings, Endianness    : Big\nCodec ID                       : A_AC3\nDuration                       : 2h 5mn\nBit rate mode                  : Constant\nBit rate                       : 448 Kbps\nChannel(s)                     : 6 channels\nChannel positions              : Front: L C R, Side: L R, LFE\nSampling rate                  : 48.0 KHz\nBit depth                      : 16 bits\nCompression mode               : Lossy\nStream size                    : 402 MiB (13%)\nTitle                          : Original\nLanguage                       : English\nDefault                        : No\nForced                         : No\n\nText #1\nID                             : 9\nFormat                         : UTF-8\nCodec ID                       : S_TEXT/UTF8\nCodec ID/Info                  : UTF-8 Plain Text\nTitle                          : Full\nLanguage                       : Russian\nDefault                        : No\nForced                         : No\n\nText #2\nID                             : 10\nFormat                         : UTF-8\nCodec ID                       : S_TEXT/UTF8\nCodec ID/Info                  : UTF-8 Plain Text\nTitle                          : Full\nLanguage                       : English\nDefault                        : No\nForced                         : No\n\nMenu\n00:00:00.000                   : :Chapter 01\n00:05:22.780                   : :Chapter 02\n00:08:26.297                   : :Chapter 03\n00:12:43.512                   : :Chapter 04\n00:15:20.461                   : :Chapter 05\n00:19:54.818                   : :Chapter 06\n00:29:52.999                   : :Chapter 07\n00:39:50.346                   : :Chapter 08\n00:46:05.846                   : :Chapter 09\n00:52:46.746                   : :Chapter 10\n01:01:07.080                   : :Chapter 11\n01:09:22.825                   : :Chapter 12\n01:24:18.053                   : :Chapter 13\n01:39:21.288                   : :Chapter 14\n01:43:59.775                   : :Chapter 15\n01:47:53.091                   : :Chapter 16\n02:05:26.810                   : :Chapter 17","torrent":{"xt":"urn:btih:74f35e96a5912c4d47f08129db6b11d3744969a1","amp;dn":"Philadelphia+%281993%29+BDRip-AVC+MediaClub","amp;tr":["udp%3A%2F%2Ftracker.openbittorrent.com%3A80","udp%3A%2F%2Fopen.demonii.com%3A1337","udp%3A%2F%2Ftracker.coppersurfer.tk%3A6969","udp%3A%2F%2Fexodus.desync.com%3A6969"],"infoHash":"74f35e96a5912c4d47f08129db6b11d3744969a1","infoHashBuffer":{"type":"Buffer","data":[116,243,94,150,165,145,44,77,71,240,129,41,219,107,17,211,116,73,105,161]},"announce":[],"urlList":[]}}